<mxfile host="app.diagrams.net" modified="2023-07-19T14:52:22.370Z" agent="Mozilla/5.0 (X11; Linux x86_64; rv:109.0) Gecko/20100101 Firefox/115.0" etag="J7D_XBPseND1ZkdvyYiL" version="21.6.3" type="device">
  <diagram name="Page-1" id="qyJrDZVwj4_fbve-qA_q">
    <mxGraphModel dx="691" dy="376" grid="1" gridSize="10" guides="1" tooltips="1" connect="1" arrows="1" fold="1" page="1" pageScale="1" pageWidth="850" pageHeight="1100" math="0" shadow="0">
      <root>
        <mxCell id="0" />
        <mxCell id="1" parent="0" />
        <mxCell id="41fuQ7woqXa87n3lC5hE-4" style="edgeStyle=orthogonalEdgeStyle;rounded=0;orthogonalLoop=1;jettySize=auto;html=1;exitX=0.25;exitY=0;exitDx=0;exitDy=0;entryX=0.25;entryY=1;entryDx=0;entryDy=0;" edge="1" parent="1" source="41fuQ7woqXa87n3lC5hE-1" target="41fuQ7woqXa87n3lC5hE-2">
          <mxGeometry relative="1" as="geometry" />
        </mxCell>
        <mxCell id="41fuQ7woqXa87n3lC5hE-7" value="Data" style="edgeLabel;html=1;align=center;verticalAlign=middle;resizable=0;points=[];" vertex="1" connectable="0" parent="41fuQ7woqXa87n3lC5hE-4">
          <mxGeometry x="0.0917" relative="1" as="geometry">
            <mxPoint as="offset" />
          </mxGeometry>
        </mxCell>
        <mxCell id="41fuQ7woqXa87n3lC5hE-1" value="Home Assistant" style="rounded=0;whiteSpace=wrap;html=1;" vertex="1" parent="1">
          <mxGeometry x="365" y="520" width="120" height="60" as="geometry" />
        </mxCell>
        <mxCell id="41fuQ7woqXa87n3lC5hE-5" style="edgeStyle=orthogonalEdgeStyle;rounded=0;orthogonalLoop=1;jettySize=auto;html=1;exitX=0.75;exitY=1;exitDx=0;exitDy=0;entryX=0.75;entryY=0;entryDx=0;entryDy=0;" edge="1" parent="1" source="41fuQ7woqXa87n3lC5hE-2" target="41fuQ7woqXa87n3lC5hE-1">
          <mxGeometry relative="1" as="geometry" />
        </mxCell>
        <mxCell id="41fuQ7woqXa87n3lC5hE-8" value="Commands" style="edgeLabel;html=1;align=center;verticalAlign=middle;resizable=0;points=[];" vertex="1" connectable="0" parent="41fuQ7woqXa87n3lC5hE-5">
          <mxGeometry x="-0.0667" y="1" relative="1" as="geometry">
            <mxPoint as="offset" />
          </mxGeometry>
        </mxCell>
        <mxCell id="41fuQ7woqXa87n3lC5hE-10" style="edgeStyle=orthogonalEdgeStyle;rounded=0;orthogonalLoop=1;jettySize=auto;html=1;exitX=0;exitY=0.5;exitDx=0;exitDy=0;entryX=0.5;entryY=0;entryDx=0;entryDy=0;shape=link;" edge="1" parent="1" source="41fuQ7woqXa87n3lC5hE-2">
          <mxGeometry relative="1" as="geometry">
            <mxPoint x="260" y="450" as="targetPoint" />
          </mxGeometry>
        </mxCell>
        <mxCell id="41fuQ7woqXa87n3lC5hE-2" value="Abstracted UI" style="rounded=0;whiteSpace=wrap;html=1;" vertex="1" parent="1">
          <mxGeometry x="365" y="380" width="120" height="60" as="geometry" />
        </mxCell>
        <mxCell id="41fuQ7woqXa87n3lC5hE-13" value="MongoDB" style="shape=datastore;whiteSpace=wrap;html=1;" vertex="1" parent="1">
          <mxGeometry x="230" y="450" width="60" height="60" as="geometry" />
        </mxCell>
        <mxCell id="41fuQ7woqXa87n3lC5hE-15" style="edgeStyle=orthogonalEdgeStyle;rounded=0;orthogonalLoop=1;jettySize=auto;html=1;exitX=0.5;exitY=0;exitDx=0;exitDy=0;exitPerimeter=0;entryX=1;entryY=0.5;entryDx=0;entryDy=0;shape=link;" edge="1" parent="1" source="41fuQ7woqXa87n3lC5hE-14" target="41fuQ7woqXa87n3lC5hE-1">
          <mxGeometry relative="1" as="geometry" />
        </mxCell>
        <mxCell id="41fuQ7woqXa87n3lC5hE-14" value="Appliances" style="strokeWidth=2;html=1;shape=mxgraph.flowchart.multi-document;whiteSpace=wrap;" vertex="1" parent="1">
          <mxGeometry x="590" y="580" width="88" height="60" as="geometry" />
        </mxCell>
        <mxCell id="41fuQ7woqXa87n3lC5hE-17" value="" style="edgeStyle=orthogonalEdgeStyle;rounded=0;orthogonalLoop=1;jettySize=auto;html=1;" edge="1" parent="1" source="41fuQ7woqXa87n3lC5hE-16" target="41fuQ7woqXa87n3lC5hE-1">
          <mxGeometry relative="1" as="geometry" />
        </mxCell>
        <mxCell id="41fuQ7woqXa87n3lC5hE-18" value="Data" style="edgeLabel;html=1;align=center;verticalAlign=middle;resizable=0;points=[];" vertex="1" connectable="0" parent="41fuQ7woqXa87n3lC5hE-17">
          <mxGeometry x="-0.1333" y="1" relative="1" as="geometry">
            <mxPoint as="offset" />
          </mxGeometry>
        </mxCell>
        <mxCell id="41fuQ7woqXa87n3lC5hE-16" value="Cache Server" style="rounded=0;whiteSpace=wrap;html=1;" vertex="1" parent="1">
          <mxGeometry x="365" y="630" width="120" height="60" as="geometry" />
        </mxCell>
        <mxCell id="41fuQ7woqXa87n3lC5hE-20" style="edgeStyle=orthogonalEdgeStyle;rounded=0;orthogonalLoop=1;jettySize=auto;html=1;exitX=0.5;exitY=0;exitDx=0;exitDy=0;exitPerimeter=0;entryX=1;entryY=0.5;entryDx=0;entryDy=0;" edge="1" parent="1" source="41fuQ7woqXa87n3lC5hE-19" target="41fuQ7woqXa87n3lC5hE-16">
          <mxGeometry relative="1" as="geometry" />
        </mxCell>
        <mxCell id="41fuQ7woqXa87n3lC5hE-19" value="Feathers" style="strokeWidth=2;html=1;shape=mxgraph.flowchart.multi-document;whiteSpace=wrap;" vertex="1" parent="1">
          <mxGeometry x="590" y="720" width="88" height="60" as="geometry" />
        </mxCell>
      </root>
    </mxGraphModel>
  </diagram>
</mxfile>
